<svg xmlns="http://www.w3.org/2000/svg" width="30" height="25.194" viewBox="0 0 30 25.194">
  <path id="Tracé_30" data-name="Tracé 30" d="M214.364,175.229a.388.388,0,0,0,.111.748h1.265s18.68.446,12.291-11.237c-4.053-7.41-8.253-10.294-14.938-13.116a.437.437,0,0,1,.183-.839c6.342,0,17.311.769,22.742,14.174a.48.48,0,0,0,.909-.105c.613-2.205,2.231-6.565,5.744-8.214.264-.124.158-.552-.125-.5-3.4.589-9.893,2.577-16.69,10.321C221.064,171.916,217.449,174.161,214.364,175.229Z" transform="translate(-212.822 -150.786)" fill="#00c896"/>
</svg>
