<svg xmlns="http://www.w3.org/2000/svg" width="31.311" height="33" viewBox="0 0 31.311 33">
  <g id="Groupe_152" data-name="Groupe 152" transform="translate(0.5 0.5)">
    <path id="Tracé_23" data-name="Tracé 23" d="M61.947,366.193h-7.7a6.538,6.538,0,0,0-.177-3.032h4.9a3.767,3.767,0,0,0,3.767-3.767V343.606a3.768,3.768,0,0,0-3.767-3.767H36.193a3.767,3.767,0,0,0-3.767,3.767v15.787a3.767,3.767,0,0,0,3.767,3.767h4.9a6.553,6.553,0,0,0-.177,3.032h-7.7a.56.56,0,1,0,0,1.12H41.2a6.761,6.761,0,0,0,12.762,0h7.985a.56.56,0,1,0,0-1.12Zm-27.625-4.928a2.634,2.634,0,0,1-.775-1.871V343.606a2.646,2.646,0,0,1,2.646-2.647H58.969a2.648,2.648,0,0,1,2.647,2.647v15.787a2.648,2.648,0,0,1-2.647,2.647H57.438v-1.121a5.9,5.9,0,0,0-5.641-5.888L50.78,359.1a6.722,6.722,0,0,0-2.146-.713l-.349-1.667L49.693,355H45.469l1.408,1.717-.349,1.667a6.722,6.722,0,0,0-2.146.713l-1.017-4.071a5.9,5.9,0,0,0-5.641,5.888v1.121H36.193A2.637,2.637,0,0,1,34.321,361.265Zm17.255,7.8a5.649,5.649,0,1,1,1.655-4A5.629,5.629,0,0,1,51.576,369.064Z" transform="translate(-32.426 -339.839)" fill="#fff" stroke="rgba(0,0,0,0)" stroke-width="1"/>
    <ellipse id="Ellipse_6" data-name="Ellipse 6" cx="5.632" cy="5.632" rx="5.632" ry="5.632" transform="translate(9.523 2.493)" fill="#fff" stroke="rgba(0,0,0,0)" stroke-width="1"/>
    <path id="Tracé_24" data-name="Tracé 24" d="M72.381,401.112,68.2,398.457a.783.783,0,0,0-1.217.605v5.31a.783.783,0,0,0,1.217.6l4.181-2.655A.705.705,0,0,0,72.381,401.112Z" transform="translate(-54.078 -376.487)" fill="#fff" stroke="rgba(0,0,0,0)" stroke-width="1"/>
  </g>
</svg>
