<svg xmlns="http://www.w3.org/2000/svg" width="30" height="24" viewBox="0 0 30 24">
  <path id="lightbulb-on" d="M1.959,15.663a.375.375,0,0,0-.137.512l.375.65a.375.375,0,0,0,.512.137L7.36,14.277a9.7,9.7,0,0,1-.844-1.245ZM5.265,8.25H.375A.375.375,0,0,0,0,8.625v.75a.375.375,0,0,0,.375.375H5.368a9.917,9.917,0,0,1-.1-1.5ZM1.959,2.337l3.992,2.3a9.524,9.524,0,0,1,.664-1.349L2.709,1.038a.375.375,0,0,0-.512.137l-.375.65A.374.374,0,0,0,1.959,2.337Zm26.081,0a.375.375,0,0,0,.137-.512l-.375-.65a.375.375,0,0,0-.512-.137L23.382,3.294a9.7,9.7,0,0,1,.667,1.347ZM29.625,8.25H24.75a9.7,9.7,0,0,1-.136,1.5h5.011A.375.375,0,0,0,30,9.375v-.75A.375.375,0,0,0,29.625,8.25Zm-1.584,7.413-4.565-2.636a9.708,9.708,0,0,1-.85,1.241l4.665,2.693a.375.375,0,0,0,.512-.137l.375-.65A.374.374,0,0,0,28.041,15.663ZM15,3A5.256,5.256,0,0,0,9.75,8.25a.75.75,0,1,0,1.5,0A3.754,3.754,0,0,1,15,4.5.75.75,0,1,0,15,3Zm0-3A8.245,8.245,0,0,0,8.792,13.677,12.754,12.754,0,0,1,11.25,18l0,3.524a.749.749,0,0,0,.126.414l1.149,1.727a.75.75,0,0,0,.624.335h3.7a.749.749,0,0,0,.624-.335l1.149-1.727a.754.754,0,0,0,.126-.414l0-3.524a12.732,12.732,0,0,1,2.458-4.323A8.245,8.245,0,0,0,15,0Zm2.247,21.3-.8,1.2H13.553l-.8-1.2V21h4.5Zm0-1.8h-4.5l0-1.5h4.5Zm2.831-6.812A15.979,15.979,0,0,0,17.709,16.5H12.291A15.985,15.985,0,0,0,9.92,12.688a6.75,6.75,0,1,1,10.16,0Z" fill="#00235a"/>
</svg>
