<svg xmlns="http://www.w3.org/2000/svg" width="24" height="32" viewBox="0 0 24 32">
  <path id="clipboard-list-check" d="M21,4H15.463a3.3,3.3,0,0,0,.038-.5,3.5,3.5,0,0,0-7,0,3.3,3.3,0,0,0,.037.5H3A3,3,0,0,0,0,7V29a3,3,0,0,0,3,3H21a3,3,0,0,0,3-3V7A3,3,0,0,0,21,4ZM12,2a1.5,1.5,0,1,1-1.5,1.5A1.5,1.5,0,0,1,12,2ZM22,29a1,1,0,0,1-1,1H3a1,1,0,0,1-1-1V7A1,1,0,0,1,3,6H6V7.25A.752.752,0,0,0,6.75,8h10.5A.752.752,0,0,0,18,7.25V6h3a1,1,0,0,1,1,1ZM7,20.5A1.5,1.5,0,1,0,8.5,22,1.5,1.5,0,0,0,7,20.5Zm10.5.5h-7a.5.5,0,0,0-.5.5v1a.5.5,0,0,0,.5.5h7a.5.5,0,0,0,.5-.5v-1A.5.5,0,0,0,17.5,21ZM7.888,16.9,11.9,12.925a.336.336,0,0,0,0-.475l-.788-.794a.336.336,0,0,0-.475,0l-2.975,2.95L6.375,13.3a.336.336,0,0,0-.475,0l-.794.788a.336.336,0,0,0,0,.475L7.425,16.9A.321.321,0,0,0,7.888,16.9ZM17.5,15H12.65l-2.019,2H17.5a.5.5,0,0,0,.5-.5v-1A.5.5,0,0,0,17.5,15Z" fill="#fff"/>
</svg>
