<svg xmlns="http://www.w3.org/2000/svg" width="21.429" height="30" viewBox="0 0 21.429 30">
  <path id="chess-rook-alt" d="M12.321,80.607H9.107V77.365a1.579,1.579,0,0,1,1.579-1.579h.056a1.579,1.579,0,0,1,1.579,1.579v3.242ZM21.01,88.85a.8.8,0,0,1,.419.705V93.2a.8.8,0,0,1-.8.8H.8a.8.8,0,0,1-.8-.8V89.555a.8.8,0,0,1,.419-.705l1.724-.94V86.232a.8.8,0,0,1,.8-.8H3.27a49.192,49.192,0,0,0,1.017-10.27L2.078,72.95a1.607,1.607,0,0,1-.471-1.136V65.607A1.607,1.607,0,0,1,3.214,64h15a1.607,1.607,0,0,1,1.607,1.607v6.207a1.607,1.607,0,0,1-.471,1.136l-2.209,2.209a49.2,49.2,0,0,0,1.017,10.27h.323a.8.8,0,0,1,.8.8v1.677l1.724.94ZM5.461,85.429H15.967A53.453,53.453,0,0,1,15,74.269l2.677-2.677V66.143H15v3.214H12.857V66.143H8.571v3.214H6.429V66.143H3.75v5.449l2.677,2.677A53.473,53.473,0,0,1,5.461,85.429ZM19.286,90.35l-2.143-1.169v-1.61H4.286v1.61L2.143,90.35v1.507H19.286Z" transform="translate(0 -64)" fill="#fff"/>
</svg>
