<?xml version="1.0" encoding="utf-8"?>
<!-- Generator: Adobe Illustrator 24.1.1, SVG Export Plug-In . SVG Version: 6.00 Build 0)  -->
<svg version="1.1" id="Calque_1" xmlns="http://www.w3.org/2000/svg" xmlns:xlink="http://www.w3.org/1999/xlink" x="0px" y="0px"
	 viewBox="0 0 18 24" style="enable-background:new 0 0 18 24;" xml:space="preserve">
<style type="text/css">
	.st0{fill:#FFFFFF;}
</style>
<path class="st0" d="M9,0c-5,0-9,4.1-9,9c0,3.6,1.2,4.7,8.1,14.5C8.3,23.9,8.7,24,9,24s0.7-0.1,0.9-0.5C16.8,13.7,18,12.6,18,9
	C18,4.1,14,0,9,0z M9,22.2c-0.9-1.4-1.7-2.5-2.5-3.5c-4.5-6.4-5-7.2-5-9.7c0-4.1,3.4-7.5,7.5-7.5s7.5,3.4,7.5,7.5
	c0,2.5-0.5,3.3-5,9.8C10.7,19.7,9.9,20.9,9,22.2L9,22.2z M9,13.9c-0.6,0-1.1,0.5-1.1,1.1s0.5,1.1,1.1,1.1c0.6,0,1.1-0.5,1.1-1.1
	S9.6,13.9,9,13.9z M9,4.5c-2,0-3.5,1.4-3.8,3.3c0,0.2,0.2,0.5,0.5,0.5h0.8c0.2,0,0.4-0.1,0.4-0.3C7,6.8,7.9,6,9,6
	c1.4,0,2.3,1.1,2.3,2.3c0,1-1,1.5-2.6,2.3c-0.2,0.1-0.5,0.4-0.5,0.7v1.1c0,0.2,0.1,0.4,0.4,0.4h0.8c0.2,0,0.4-0.2,0.4-0.4v-0.7
	c1.5-0.8,3-1.7,3-3.5C12.8,6.4,11.4,4.5,9,4.5z"/>
</svg>
