<svg id="Calque_1" data-name="Calque 1" xmlns="http://www.w3.org/2000/svg" xmlns:xlink="http://www.w3.org/1999/xlink" viewBox="0 0 100 100"><defs><style>.cls-1{fill:url(#Dégradé_sans_nom_2);}.cls-2{fill:#29235c;}</style><linearGradient id="Dégradé_sans_nom_2" x1="-56.5" y1="174.15" x2="-56.06" y2="175.14" gradientTransform="matrix(84.87, 0, 0, -65.63, 4813.56, 11489.21)" gradientUnits="userSpaceOnUse"><stop offset="0" stop-color="#29235c"/><stop offset="0.1" stop-color="#2a2d60"/><stop offset="0.26" stop-color="#2e486b"/><stop offset="0.47" stop-color="#34747d"/><stop offset="0.71" stop-color="#3db096"/><stop offset="0.72" stop-color="#3eb397"/></linearGradient></defs><title>logo-fcl</title><g id="logo_FCL" data-name="logo FCL"><path id="Tracé_12" data-name="Tracé 12" class="cls-1" d="M15.42,56.35a.88.88,0,0,0,.28,1.72h3.16s46.77,1,30.77-25.9C39.49,15.09,29,8.45,12.24,1.94A1,1,0,0,1,12.69,0C28.57,0,56,1.78,69.63,32.68a1.24,1.24,0,0,0,1.68.49,1.21,1.21,0,0,0,.59-.74c1.54-5.08,5.59-15.13,14.39-18.93A.61.61,0,0,0,86,12.34c-8.5,1.36-24.77,5.94-41.78,23.79C32.19,48.71,23.14,53.88,15.42,56.35Z"/><g id="Groupe_80" data-name="Groupe 80"><path id="Tracé_13" data-name="Tracé 13" class="cls-2" d="M70.11,97.57V69.93H77.7V92.85H96.5a1.72,1.72,0,0,1,1.72,1.72v4.71H71.83a1.71,1.71,0,0,1-1.72-1.71Z"/><g id="Groupe_79" data-name="Groupe 79"><path id="Tracé_14" data-name="Tracé 14" class="cls-2" d="M7.45,76.54v5H25.39v4.52a1.62,1.62,0,0,1-1.63,1.62H7.45v9.89a1.63,1.63,0,0,1-1.63,1.63H0V70.4H26.38v4.51a1.63,1.63,0,0,1-1.63,1.63Z"/><path id="Tracé_15" data-name="Tracé 15" class="cls-2" d="M59.65,98.38a28.9,28.9,0,0,1-3,.87,26.44,26.44,0,0,1-3.3.56,35.7,35.7,0,0,1-3.73.19,30.26,30.26,0,0,1-7.76-.94,18,18,0,0,1-6.11-2.85,13.14,13.14,0,0,1-4-4.74,16.11,16.11,0,0,1,0-13.28,13.22,13.22,0,0,1,4-4.74,17.78,17.78,0,0,1,6.11-2.84,30.27,30.27,0,0,1,7.76-1,35.7,35.7,0,0,1,3.73.19,26.44,26.44,0,0,1,3.3.56c1,.24,2,.53,3,.87s1.94.71,2.91,1.13v4.24a1.66,1.66,0,0,1-1.66,1.66,1.63,1.63,0,0,1-.75-.18h0A21.25,21.25,0,0,0,57.36,77,24.5,24.5,0,0,0,54,76.14a23.69,23.69,0,0,0-4.12-.33,19.25,19.25,0,0,0-5.84.76,10,10,0,0,0-3.7,2,6.88,6.88,0,0,0-2,2.89,9.89,9.89,0,0,0-.56,3.37,10.87,10.87,0,0,0,.24,2.27,7.33,7.33,0,0,0,2.27,4,7.75,7.75,0,0,0,2.25,1.45,14.42,14.42,0,0,0,3.14,1,23.1,23.1,0,0,0,4.15.35A25.8,25.8,0,0,0,54,93.51a21.51,21.51,0,0,0,3.35-.81,19.91,19.91,0,0,0,2.79-1.14h0a1.68,1.68,0,0,1,2.24.73,1.79,1.79,0,0,1,.17.75v4.22C61.6,97.67,60.62,98.05,59.65,98.38Z"/></g></g></g></svg>