<svg id="Calque_1" data-name="Calque 1" xmlns="http://www.w3.org/2000/svg" viewBox="0 0 26 20"><defs><style>.cls-1{fill:#00c896;}</style></defs><title>picto-fcl</title><path id="Tracé_16" data-name="Tracé 16" class="cls-1" d="M1.32,19.4a.31.31,0,0,0,.1.6H2.51s16.11.35,10.6-8.92C9.61,5.2,6,2.91.23.67A.35.35,0,0,1,0,.23.35.35,0,0,1,.39,0C5.85,0,15.31.61,20,11.25a.43.43,0,0,0,.58.18.49.49,0,0,0,.21-.26C21.3,9.42,22.7,6,25.73,4.65a.21.21,0,0,0,.13-.26.22.22,0,0,0-.24-.14c-2.92.47-8.52,2.05-14.38,8.19C7.1,16.78,4,18.56,1.32,19.4Z"/></svg>